<?xml version="1.0" standalone="no"?>
<!DOCTYPE svg PUBLIC "-//W3C//DTD SVG 20010904//EN"
 "http://www.w3.org/TR/2001/REC-SVG-20010904/DTD/svg10.dtd">
<svg version="1.0" xmlns="http://www.w3.org/2000/svg"
 width="5208.000000pt" height="5208.000000pt" viewBox="0 0 5208.000000 5208.000000"
 preserveAspectRatio="xMidYMid meet">

<g transform="translate(0.000000,5208.000000) scale(0.100000,-0.100000)"
fill="#f1f1f1" stroke="none">
<path d="M11735 43760 c-1480 -8 -2074 -21 -2840 -60 -456 -24 -843 -58 -1010
-90 -122 -24 -179 -52 -282 -140 -144 -122 -295 -316 -382 -490 -177 -351
-231 -666 -231 -1355 0 -635 56 -1094 181 -1484 93 -290 246 -569 386 -708
114 -112 295 -220 470 -279 97 -33 232 -38 333 -11 328 87 749 457 944 827 56
108 122 263 196 460 124 333 208 497 282 547 118 78 417 103 1858 153 1036 35
5895 53 14700 53 8805 0 13664 -18 14700 -53 1441 -50 1740 -75 1858 -153 74
-50 158 -214 282 -547 119 -319 200 -487 303 -632 189 -265 426 -471 678 -593
127 -61 203 -79 319 -79 75 1 111 7 173 28 175 59 356 167 470 279 140 139
293 418 386 708 125 390 181 849 181 1484 0 689 -54 1004 -231 1355 -87 174
-238 368 -382 490 -103 88 -160 116 -282 140 -336 64 -1295 117 -2600 142
-652 12 -28257 19 -30460 8z"/>
<path d="M16315 40310 c-2283 -8 -2946 -13 -3505 -30 -1026 -31 -1452 -75
-1690 -173 -335 -137 -615 -476 -681 -824 -18 -94 -6 -319 21 -413 84 -293
359 -605 634 -719 180 -75 519 -127 1056 -161 238 -15 1414 -28 3685 -42 2832
-17 18178 -17 21010 0 2271 14 3447 27 3685 42 537 34 876 86 1056 161 275
114 550 426 634 719 27 94 39 319 21 413 -66 348 -346 687 -681 824 -324 133
-1008 175 -3145 194 -1414 12 -19041 20 -22100 9z"/>
<path d="M18695 36849 c-2270 -6 -2995 -14 -3860 -39 -1415 -42 -1699 -103
-2012 -434 -288 -304 -395 -722 -289 -1122 49 -182 149 -355 288 -500 196
-204 378 -317 608 -378 250 -67 552 -97 1300 -131 714 -33 929 -58 1068 -129
177 -90 208 -233 242 -1111 52 -1345 93 -4953 121 -10493 10 -2029 10 -2225
-5 -2345 -15 -121 -16 -645 -13 -6342 l3 -6210 22 -97 c93 -413 351 -734 729
-910 250 -116 365 -143 578 -136 287 10 479 90 737 307 279 235 438 535 467
886 6 66 10 1876 11 4525 0 2610 5 4626 11 4930 5 283 12 745 14 1025 3 281 9
623 14 760 5 138 10 567 10 955 8 5203 9 5547 41 8730 33 3291 68 4778 126
5235 18 148 30 187 63 219 69 66 452 132 996 171 652 46 1170 58 2209 52 825
-5 1027 -10 1481 -37 642 -38 1049 -102 1085 -171 53 -98 99 -1068 140 -2924
51 -2350 84 -5054 145 -11925 8 -905 17 -1922 21 -2260 6 -508 15 -3936 13
-4875 -1 -269 7 -369 42 -502 124 -478 524 -844 1013 -928 114 -19 318 -19
432 0 476 82 871 433 1000 888 14 51 31 101 37 112 14 25 25 729 26 1630 2
1364 79 9983 121 13510 31 2590 78 5071 115 5995 33 831 61 1217 95 1279 36
69 443 133 1085 171 454 27 656 32 1481 37 1039 6 1557 -6 2209 -52 544 -39
927 -105 996 -171 33 -32 45 -71 63 -219 81 -642 120 -3201 171 -11075 8
-1251 17 -2837 20 -3525 9 -2019 14 -2605 26 -2690 54 -415 319 -785 698 -975
82 -41 245 -94 341 -111 97 -17 343 -17 440 0 96 17 259 70 341 111 350 175
594 492 686 889 24 100 23 13 27 4411 2 2010 9 4283 15 5050 41 5222 80 7277
147 7815 29 240 74 329 196 391 139 71 354 96 1068 129 1173 53 1434 107 1750
362 227 183 381 407 446 647 74 276 45 563 -81 822 -65 134 -144 242 -256 349
-315 302 -613 352 -2329 395 -223 6 -862 15 -1420 20 -1183 12 -13781 18
-17365 9z"/>
</g>
</svg>
